HIERARCHY
ROOT root
{
	OFFSET 0.000000 0.000000 0.000000
	CHANNELS 6 Xposition Yposition Zposition Zrotation Yrotation Xrotation
	JOINT lhip
	{
		OFFSET 0.058581 -0.082280 -0.017664
		CHANNELS 3 Zrotation Yrotation Xrotation
		JOINT lknee
		{
			OFFSET 0.043451 -0.386469 0.008037
			CHANNELS 3 Zrotation Yrotation Xrotation
			JOINT lankle
			{
				OFFSET -0.014790 -0.426874 -0.037428
				CHANNELS 3 Zrotation Yrotation Xrotation
				JOINT ltoe
				{
					OFFSET 0.041054 -0.060286 0.122042
					CHANNELS 3 Zrotation Yrotation Xrotation
					End Site
					{
						OFFSET 0.000000 0.000000 0.000000
					}
				}
			}
		}
	}
	JOINT rhip
	{
		OFFSET -0.060310 -0.090513 -0.013543
		CHANNELS 3 Zrotation Yrotation Xrotation
		JOINT rknee
		{
			OFFSET -0.043257 -0.383688 -0.004843
			CHANNELS 3 Zrotation Yrotation Xrotation
			JOINT rankle
			{
				OFFSET 0.019056 -0.420046 -0.034562
				CHANNELS 3 Zrotation Yrotation Xrotation
				JOINT rtoe
				{
					OFFSET -0.034840 -0.062106 0.130323
					CHANNELS 3 Zrotation Yrotation Xrotation
					End Site
					{
						OFFSET 0.000000 0.000000 0.000000
					}
				}
			}
		}
	}
	JOINT lowerback
	{
		OFFSET 0.004439 0.124404 -0.038385
		CHANNELS 3 Zrotation Yrotation Xrotation
		JOINT upperback
		{
			OFFSET 0.004488 0.137956 0.026820
			CHANNELS 3 Zrotation Yrotation Xrotation
			JOINT chest
			{
				OFFSET -0.002265 0.056032 0.002855
				CHANNELS 3 Zrotation Yrotation Xrotation
				JOINT lowerneck
				{
					OFFSET -0.013390 0.211636 -0.033468
					CHANNELS 3 Zrotation Yrotation Xrotation
					JOINT upperneck
					{
						OFFSET 0.010113 0.088937 0.050410
						CHANNELS 3 Zrotation Yrotation Xrotation
						End Site
						{
							OFFSET 0.000000 0.000000 0.000000
						}
					}
				}
				JOINT lclavicle
				{
					OFFSET 0.071702 0.114000 -0.018898
					CHANNELS 3 Zrotation Yrotation Xrotation
					JOINT lshoulder
					{
						OFFSET 0.122921 0.045205 -0.019046
						CHANNELS 3 Zrotation Yrotation Xrotation
						JOINT lelbow
						{
							OFFSET 0.255332 -0.015649 -0.022946
							CHANNELS 3 Zrotation Yrotation Xrotation
							JOINT lwrist
							{
								OFFSET 0.265709 0.012698 -0.007375
								CHANNELS 3 Zrotation Yrotation Xrotation
								End Site
								{
									OFFSET 0.000000 0.000000 0.000000
								}
							}
						}
					}
				}
				JOINT rclavicle
				{
					OFFSET -0.082954 0.112472 -0.023707
					CHANNELS 3 Zrotation Yrotation Xrotation
					JOINT rshoulder
					{
						OFFSET -0.113228 0.046853 -0.008472
						CHANNELS 3 Zrotation Yrotation Xrotation
						JOINT relbow
						{
							OFFSET -0.260127 -0.014369 -0.031269
							CHANNELS 3 Zrotation Yrotation Xrotation
							JOINT rwrist
							{
								OFFSET -0.269108 0.006794 -0.006027
								CHANNELS 3 Zrotation Yrotation Xrotation
								End Site
								{
									OFFSET 0.000000 0.000000 0.000000
								}
							}
						}
					}
				}
			}
		}
	}
}
MOTION
Frames: 16
Frame Time: 0.033333
0.042539 0.460245 1.001722 175.443658 -0.699381 86.046588 6.187701 3.070705 9.166932 -4.678508 -3.108259 -3.009064 -0.977844 10.251849 -4.232048 0.000000 -0.000000 0.000000 -4.636013 -0.528339 4.011721 4.522141 1.998030 5.479562 3.847715 -2.956226 -7.214632 0.000000 -0.000000 0.000000 -0.384541 -0.677192 2.640931 -0.560192 -2.288939 2.726992 -1.179267 0.647978 0.824390 3.720098 0.103325 -3.054140 4.772896 -1.615067 -3.097249 -28.358772 7.369529 -3.475170 -56.209057 -4.188657 5.109174 11.340257 -11.253329 -7.765125 -15.912416 -15.984567 -4.357594 26.213692 -0.914401 1.184093 55.567994 4.741959 12.492743 -7.342276 16.140020 1.036675 20.847051 11.764468 -1.403341 
0.042424 0.459783 1.001545 175.522147 -0.722788 86.254873 6.194980 3.331643 8.802225 -4.713585 -3.312473 -2.843288 -0.905487 10.148944 -4.258231 0.000000 -0.000000 0.000000 -4.637203 -0.568449 3.703715 4.467919 1.917221 5.634633 4.274776 -3.030325 -7.271541 0.000000 -0.000000 0.000000 -0.484335 -0.766039 2.350380 -0.478081 -2.334501 2.845037 -1.180492 0.749994 0.665944 3.763740 0.028212 -2.818913 4.769116 -1.519745 -2.909522 -27.939656 7.116378 -3.537238 -56.040857 -4.096108 5.585699 10.909752 -11.607664 -6.991133 -15.750325 -15.841461 -4.208187 26.240556 -0.682495 1.207039 55.965557 4.698785 13.030594 -6.840589 16.649340 1.854311 20.522940 11.796574 -1.144400 
0.042268 0.459850 1.001603 175.391117 -0.712106 86.213861 6.176236 3.256223 8.904466 -4.708667 -3.198703 -2.895948 -0.900677 10.223131 -4.257142 0.000000 -0.000000 0.000000 -4.631718 -0.562914 3.744838 4.449150 1.990787 5.593706 4.273602 -2.978845 -7.283790 0.000000 -0.000000 0.000000 -0.430207 -0.692134 2.387528 -0.489746 -2.329668 2.795157 -1.152767 0.735728 0.633973 3.798034 0.091394 -2.577967 4.805327 -1.322393 -2.801783 -27.682726 6.949767 -3.545178 -55.893797 -4.052927 5.936196 10.603089 -11.900299 -6.126066 -15.766475 -15.805425 -3.946869 26.109956 -0.506069 1.211159 56.380974 4.702851 13.531032 -6.402975 17.281638 2.835953 20.434971 11.971690 -0.853151 
0.041819 0.460017 1.001653 175.386405 -0.751987 86.214448 6.049132 3.105848 8.959363 -4.645813 -3.082936 -2.966297 -0.882324 10.250849 -4.244932 0.000000 -0.000000 0.000000 -4.701008 -0.531943 3.778816 4.426571 1.953578 5.561529 4.345378 -2.970148 -7.229115 0.000000 -0.000000 0.000000 -0.435804 -0.663848 2.358200 -0.482258 -2.358591 2.790001 -1.091895 0.663692 0.608531 3.775128 0.095451 -2.437758 4.827422 -1.313723 -2.685780 -27.300370 6.675576 -3.299216 -55.959289 -4.023215 6.277994 10.235386 -12.239888 -5.323248 -15.709122 -16.174829 -3.749211 25.910402 -0.147058 1.367321 56.948287 4.769020 13.871373 -6.146146 17.587008 3.348032 19.876266 12.328153 -0.706654 
0.041269 0.460326 1.001731 175.467547 -0.791033 86.101543 5.941884 3.029006 9.101842 -4.596006 -3.110483 -2.986549 -0.885010 10.295430 -4.277101 0.000000 -0.000000 0.000000 -4.744587 -0.314861 3.987404 4.422925 1.768190 5.434851 4.343072 -3.126437 -7.288005 0.000000 -0.000000 0.000000 -0.487337 -0.731725 2.447310 -0.439675 -2.358583 2.780812 -1.008412 0.674959 0.621602 3.720985 0.068124 -2.406289 4.829034 -1.295120 -2.638332 -27.236088 6.553411 -3.282313 -56.004270 -4.067110 6.355122 10.004328 -12.297035 -5.051031 -15.648261 -16.124564 -3.673664 25.883551 -0.063412 1.391251 57.040177 4.747935 13.992433 -5.996276 17.867915 3.606919 19.733480 12.451131 -0.616032 
0.040794 0.460530 1.001784 175.520974 -0.838650 86.033839 5.832411 2.937356 9.176773 -4.562296 -3.078294 -2.999495 -0.902273 10.298628 -4.255911 0.000000 -0.000000 0.000000 -4.793352 -0.103554 4.203602 4.395534 1.588896 5.217948 4.346048 -3.230920 -7.247300 0.000000 -0.000000 0.000000 -0.545535 -0.767068 2.449026 -0.416629 -2.348169 2.863938 -0.939760 0.677871 0.632340 3.688765 0.147883 -2.376848 4.867297 -1.345762 -2.717891 -27.175530 6.437697 -3.300870 -56.137454 -4.206586 6.207638 9.815239 -12.104235 -5.145728 -15.621731 -16.265822 -3.663548 25.913045 0.060902 1.460021 57.090257 4.697758 14.175270 -5.782755 18.325641 4.205054 19.220246 12.660435 0.226663 
0.040764 0.460314 1.001673 175.352977 -0.743605 86.192986 5.953310 2.979175 9.009186 -4.626126 -3.005097 -2.968897 -0.873169 10.326923 -4.290226 0.000000 -0.000000 0.000000 -4.718804 -0.321273 3.962658 4.412332 1.864597 5.236876 4.180771 -3.057343 -7.291409 0.000000 -0.000000 0.000000 -0.410407 -0.651641 2.367877 -0.414120 -2.292153 2.695472 -0.945067 0.708325 0.661809 3.706543 0.072226 -2.405612 4.874449 -1.334750 -2.653365 -27.171108 6.449060 -3.340572 -56.359225 -4.199548 6.154170 9.976551 -12.038525 -5.402028 -15.624548 -16.080542 -3.919937 25.855231 0.094518 1.585118 57.109572 4.631234 14.474915 -5.297533 18.568871 5.128050 19.590890 12.305018 0.556917 
0.040208 0.460447 1.001688 175.353240 -0.778995 86.184748 5.872749 3.003137 9.022325 -4.604359 -3.029206 -2.959301 -0.871394 10.305019 -4.315020 0.000000 -0.000000 0.000000 -4.755841 -0.297595 3.979646 4.353747 1.877486 5.239224 4.129287 -3.066167 -7.342106 0.000000 -0.000000 0.000000 -0.322876 -0.665558 2.395506 -0.478191 -2.250812 2.655126 -1.006185 0.731206 0.621394 3.740881 0.043636 -2.420158 4.951533 -1.215169 -2.567816 -27.212800 6.479076 -3.321243 -56.460568 -4.167003 6.143286 9.940066 -12.202662 -5.450014 -15.336415 -16.075301 -4.107569 25.783330 0.126183 1.618950 57.164342 4.519605 14.687319 -4.920701 18.768044 5.605031 19.293384 12.264433 0.747649 
0.039882 0.460538 1.001798 175.334533 -0.791416 86.131009 5.820449 2.923119 9.090934 -4.600205 -2.941319 -2.963706 -0.873030 10.339521 -4.309222 0.000000 -0.000000 0.000000 -4.770719 -0.317248 4.058570 4.302999 1.913725 5.177614 4.106082 -3.050826 -7.284330 0.000000 -0.000000 0.000000 -0.255785 -0.637959 2.450937 -0.521570 -2.214280 2.667893 -1.035705 0.733048 0.533723 3.689622 -0.073817 -2.366381 4.999147 -1.247761 -2.538354 -27.296867 6.474989 -3.256033 -56.578217 -4.156153 6.112162 10.065802 -12.217261 -5.584150 -15.277139 -16.132731 -4.113337 25.733339 0.155081 1.713438 57.251559 4.378787 14.770352 -4.827475 18.876363 5.729028 18.924170 12.394500 0.794134 
0.039514 0.460854 1.001766 175.383506 -0.781526 86.104388 5.820560 2.848706 9.118357 -4.611909 -2.886267 -2.931392 -0.888501 10.303650 -4.327447 0.000000 -0.000000 0.000000 -4.782566 -0.384028 4.118532 4.283666 1.933805 5.155896 4.066198 -3.016736 -7.249379 0.000000 -0.000000 0.000000 -0.192510 -0.591650 2.409154 -0.524291 -2.227699 2.666392 -1.055782 0.693995 0.564137 3.625922 -0.074884 -2.326379 5.026884 -1.275132 -2.545867 -27.390484 6.497757 -3.273680 -56.696233 -4.226010 5.940761 9.916738 -11.881108 -5.942407 -15.173620 -16.219471 -4.241675 25.747249 0.096304 1.689181 57.170597 4.313871 14.735224 -4.761850 18.903351 5.710015 18.815404 12.489443 1.005982 
0.039253 0.461058 1.001690 175.353175 -0.801285 86.142116 5.785610 2.890756 9.083062 -4.611739 -2.888275 -2.933243 -0.891269 10.317106 -4.329151 0.000000 -0.000000 0.000000 -4.820971 -0.320762 4.072084 4.278466 1.923687 5.189371 4.088553 -3.033643 -7.206038 0.000000 -0.000000 0.000000 -0.164647 -0.589781 2.308281 -0.525329 -2.204068 2.660982 -1.087379 0.698444 0.553974 3.586471 -0.077376 -2.229124 5.008399 -1.282460 -2.462739 -27.397473 6.518534 -3.252421 -56.799589 -4.174514 6.074028 9.866396 -11.812427 -5.801095 -15.229858 -16.163053 -4.184403 25.717380 0.050656 1.710714 57.153462 4.319323 14.776957 -4.676699 18.851494 5.762729 18.816188 12.406692 0.909970 
0.039143 0.461185 1.001651 175.318138 -0.780705 86.199807 5.814536 2.941193 9.020486 -4.623773 -2.893242 -2.919101 -0.866860 10.330511 -4.358585 0.000000 -0.000000 0.000000 -4.781646 -0.379515 3.985813 4.245263 1.956552 5.253174 4.099148 -3.013196 -7.190682 0.000000 -0.000000 0.000000 -0.190294 -0.572065 2.163723 -0.457867 -2.219448 2.719292 -1.074533 0.737453 0.494774 3.558244 -0.084019 -2.074229 5.010273 -1.266421 -2.481340 -27.388641 6.506209 -3.252780 -56.951437 -4.112151 6.140771 9.834427 -11.493372 -5.788686 -15.530076 -16.201672 -4.005941 25.674552 0.074485 1.732293 57.105585 4.255694 14.797407 -4.603704 18.856211 5.815204 18.956340 12.450240 0.957495 
0.039092 0.461289 1.001647 175.319808 -0.791437 86.179740 5.796493 2.945848 9.037222 -4.615844 -2.877731 -2.887758 -0.870755 10.343523 -4.360512 0.000000 -0.000000 0.000000 -4.790976 -0.391424 4.023459 4.242461 1.962527 5.230534 4.081872 -3.029569 -7.181636 0.000000 -0.000000 0.000000 -0.192216 -0.554720 2.153037 -0.470162 -2.209933 2.686998 -1.083902 0.711782 0.532255 3.565616 -0.110671 -2.068673 5.023649 -1.278538 -2.432976 -27.393608 6.499473 -3.227606 -56.976292 -4.120767 6.129256 9.760453 -11.381619 -5.805590 -15.454550 -16.222851 -4.014494 25.674688 0.095623 1.734513 57.101993 4.251735 14.834664 -4.540350 18.840026 5.860892 18.905654 12.447997 0.995022 
0.039088 0.461443 1.001586 175.312267 -0.793740 86.169949 5.806458 3.025226 9.068637 -4.606288 -2.943854 -2.906349 -0.886270 10.306903 -4.370361 0.000000 -0.000000 0.000000 -4.809568 -0.393870 4.023512 4.245806 1.960124 5.265458 4.118943 -2.973216 -7.194237 0.000000 -0.000000 0.000000 -0.186494 -0.556169 2.111964 -0.483459 -2.193909 2.674210 -1.099397 0.700746 0.520143 3.580229 -0.172506 -2.002052 5.031910 -1.275883 -2.384812 -27.375375 6.489344 -3.154844 -56.981849 -4.047209 6.189859 9.653553 -11.395457 -5.625261 -15.319280 -16.160769 -3.987189 25.667431 0.109388 1.748488 57.115946 4.237707 14.867474 -4.479277 18.872136 5.953791 18.889959 12.411859 0.960537 
0.038917 0.461620 1.001548 175.400271 -0.829029 86.154004 5.798457 3.196536 9.039726 -4.626618 -3.132793 -2.826182 -0.909490 10.222818 -4.446518 0.000000 -0.000000 0.000000 -4.872451 -0.310547 4.071478 4.282947 1.837303 5.277347 4.111177 -2.961309 -7.264410 0.000000 -0.000000 0.000000 -0.239635 -0.675841 2.069759 -0.477787 -2.205882 2.676644 -1.101789 0.723027 0.471029 3.561782 -0.274748 -1.872901 5.012216 -1.286669 -2.338461 -27.369393 6.460149 -3.010390 -56.963646 -3.876472 6.385250 9.536913 -11.677047 -5.154901 -15.071734 -16.125553 -3.826332 25.694084 0.196485 1.793567 57.102267 4.189153 14.888334 -4.403807 18.828548 6.164851 18.783908 12.405643 1.017224 
0.038807 0.461671 1.001597 175.511296 -0.862378 86.125333 5.790381 3.334289 9.008910 -4.642658 -3.258867 -2.734053 -0.916380 10.131776 -4.466660 0.000000 -0.000000 0.000000 -4.918488 -0.270817 4.141876 4.298412 1.701959 5.226271 4.110215 -2.957223 -7.287430 0.000000 -0.000000 0.000000 -0.286532 -0.760593 2.052687 -0.468096 -2.210941 2.631708 -1.086762 0.710185 0.466575 3.483862 -0.276651 -1.764008 4.972913 -1.327637 -2.297514 -27.366408 6.420302 -2.889264 -56.907279 -3.833208 6.429564 9.350454 -11.664693 -4.918016 -15.240636 -16.187297 -3.879857 25.653193 0.237713 1.826407 57.181187 4.218885 14.868132 -4.407391 18.710969 6.246589 18.835103 12.395583 0.961535 
